<svg width="824" height="659" viewBox="0 0 824 659" fill="none" xmlns="http://www.w3.org/2000/svg">
<path fill-rule="evenodd" clip-rule="evenodd" d="M626.417 1.4008C623.954 3.0225 622.883 6.7308 620.751 21.0196C611.576 82.5049 594.36 121.146 572.079 130.264C561.402 134.634 554.953 134.587 529.681 129.96C484.934 121.768 447.016 118.19 413.532 119.002C316.082 121.365 253.199 147.027 180.447 214.121C154.069 238.447 136.738 257.632 109.743 292.383C93.418 313.399 91.4031 315.019 75.3072 320.069C44.6646 329.683 23.0022 347.427 11.3658 372.444C6.6604 382.56 2.33156 398.81 1.08247 411.043C-0.145004 423.066 0.401192 429.432 2.96527 432.981C4.79048 435.509 4.97182 435.553 7.43 434.083C8.83964 433.239 10.8943 430.967 11.9963 429.031C15.0889 423.599 21.2751 418.706 29.0003 415.581C32.8695 414.016 37.7589 411.463 39.8643 409.908C47.1193 404.551 54.0951 403.525 75.5374 404.665C92.8503 405.584 94.9562 405.508 99.1269 403.815C104.751 401.529 108.857 397.806 112.144 392.009L114.646 387.595L115.919 391.15C116.618 393.106 117.896 396.9 118.759 399.582C121.303 407.488 122.528 408.212 134.874 409.104C145.411 409.865 145.652 409.937 149.268 413.388C152.315 416.294 153.517 416.828 156.265 416.497C158.837 416.187 160.523 416.791 163.757 419.181C166.052 420.877 168.829 422.312 169.928 422.37C173.203 422.54 178.19 426.484 179.61 430.029C180.34 431.852 181.333 435.257 181.818 437.596C182.664 441.677 185.526 445.041 188.247 445.152C190.182 445.231 196.991 434.922 199.935 427.456C206.309 411.289 204.789 397.343 194.941 381.636C193.44 379.243 186.735 371.087 180.041 363.512C173.346 355.937 166.422 347.723 164.654 345.261C161.279 340.557 157.217 329.394 157.386 325.279C157.609 319.834 168.988 311.905 191.086 301.798C222.848 287.271 241.934 282.922 269.166 284.005C286.321 284.687 295.865 286.71 312.538 293.194C341.606 304.5 366.646 322.177 405.716 358.974C423.342 375.575 427.109 377.142 449.417 377.155C466.334 377.164 490.28 379.628 498.843 382.241C502.105 383.237 508.778 386.223 513.673 388.876C525.363 395.215 534.02 403.963 544.535 420.059C562.938 448.231 574.991 462.245 590.32 473.291C599.928 480.214 602.6 484.079 602.33 490.665C601.95 499.962 597.747 502.188 571.19 507.155C558.535 509.522 553.127 510.941 553.088 511.907C553.005 513.934 572.132 534.151 583.587 544.146C601.334 559.627 622.9 574.332 648.079 588.119C677.511 604.234 704.964 622.107 722.63 636.655C739.859 650.842 755.753 657.884 772.273 658.651C780.842 659.049 782.308 658.835 787.376 656.443C794.26 653.194 806.458 641.858 810.672 634.793C813.293 630.399 813.967 627.926 814.968 619.018C815.622 613.209 817.421 603.102 818.964 596.56C821.401 586.234 821.9 581.568 822.752 561.185C823.599 540.925 823.488 535.912 821.938 524.621C817.228 490.295 801.306 440.554 780.064 393.8C757.341 343.786 730.031 298.928 680.459 230.196C673.041 219.911 666.857 210.152 664.973 205.759C659.739 193.552 659.681 190.049 664.13 154.361C670.793 100.894 671.617 92.5186 671.486 79.5994C671.353 66.6762 671.277 65.7703 669.353 54.3161C665.341 30.4392 654.963 12.7051 640.432 4.89859C634.372 1.64216 628.336 0.136194 626.417 1.4008ZM322.999 225.45C345.347 231.217 359.176 238.049 373.587 250.443C389.566 264.187 401.876 282.315 418.413 316.453C428.312 336.888 434.757 348.65 441.239 358.102C447.378 367.051 447.265 367.493 438.906 367.241C431.435 367.015 427.002 363.878 412.006 348.202C379.912 314.655 346.637 290.75 319.793 281.954C292.465 272.999 258.077 272.113 223.762 279.478C194.349 285.792 160.683 300.957 151.499 312.029C149.948 313.897 148.253 315.409 147.731 315.387C146.208 315.325 146.963 307.453 148.833 303.896C150.807 300.139 165.905 282.567 177.533 270.491C181.908 265.948 188.192 259.372 191.497 255.877C208.693 237.697 235.744 225.719 268.64 221.717C281.378 220.168 310.194 222.147 322.999 225.45ZM775.857 310.309C774.107 312.026 769.022 317.912 764.557 323.388L756.439 333.343L778.39 379.249C790.463 404.496 800.645 425.167 801.018 425.182C802.162 425.23 806.387 414.301 808.193 406.623C810.229 397.965 811.349 374.917 810.272 363.874C808.337 344.048 799.033 322.473 787.575 311.237C782.715 306.472 779.986 306.255 775.857 310.309ZM350.411 378.742C343.745 380.027 342.376 385.637 345.969 396.96C355.291 426.329 381.986 454.477 419.506 474.493C443.8 487.455 465.743 495.329 491.016 500.156C506.882 503.186 539.429 504.54 554.555 502.798C569.923 501.029 588.524 497.095 591.675 494.947C598.693 490.164 594.53 482.812 578.3 471.327C565.715 462.421 559.369 455.319 546.182 435.388C533.086 415.594 525.082 405.252 518.375 399.457C511.235 393.288 500.898 388.119 492.66 386.597C475.174 383.369 359.541 376.983 350.411 378.742ZM636.559 425.997C650.305 429.836 667.451 441.706 676.872 453.905C686.015 465.743 692.426 485.34 691.881 499.784C691.551 508.549 690.286 511.972 686.549 514.206C682.735 516.489 677.624 514.714 666.201 507.141C641.322 490.646 628.7 478.646 620.78 463.959C612.732 449.035 610.316 439.722 611.949 429.926C612.748 425.131 613.1 424.581 615.535 424.31C621.702 423.625 630.63 424.341 636.559 425.997ZM626.095 510.908C627.985 513.08 633.205 520.656 637.696 527.745C652.294 550.789 666.257 564.592 690.424 579.874C715.859 595.957 724.735 603.606 735.386 618.623C743.249 629.708 751.187 635.748 769.573 644.634C772.937 646.259 775.409 648.001 775.068 648.507C773.713 650.51 769.977 650.753 764.692 649.181C749.627 644.701 737.859 637.933 720.345 623.677C705.793 611.834 689.089 600.822 655.356 580.836C624.957 562.824 609.868 553.082 598.437 544.086C589.83 537.311 573.354 521.964 574.025 521.346C575.114 520.343 618.141 506.944 620.252 506.951C621.815 506.957 623.863 508.345 626.095 510.908Z" fill="black"/>
</svg>
